:SAMPLES-PER-SECOND 30
:FULLY-SPECIFIED
:DEGREES
471
root  -83.3535 41.5297 -0.217561 8.09978 82.4399 4.52444
RightUpLeg  -5.06651 -20.0812 -3.61552
RightLeg  14.8969 -9.53501 -0.756597
RightFoot  -7.61587 -0.165732 3.51191
RightToes  -4.65663e-010 0 -3.6325e-017
Spine  4.94557 -0.00386349 -2.57478
Spine1  -2.44476 -0.910762 5.04651
HEad  11.0565 11.3314 -3.59745
LeftShoulder1  0.691955 -1.47495 -6.13017
LeftArm  -21.7308 16.832 -6.9442
LeftForeArm  29.8081 -15.2963 -1.40383
LeftHand  -0.244104 0.0205437 5.32207
RightShoulder  0.0517565 -3.0759 4.18565
RightArm  -24.8252 -3.87127 1.34711
RightForeArm  -10.8173 13.8332 4.41661
RightHand  -2.8402 8.97193 -22.9862
LeftUpLeg  1.59253 4.71636 1.58406
LeftLeg  3.04559 13.3924 -3.78456
LeftFoot  -7.09048 0.113491 -1.90408
LeftToes  -5.82109e-011 -4.83791e-012 -1.00937e-011
472
root  -83.5743 41.5175 -0.240431 6.79015 84.1783 3.69156
RightUpLeg  -4.22449 -16.6159 -4.20206
RightLeg  14.7152 -4.30177 0.194164
RightFoot  -7.717 -0.183712 4.14638
RightToes  -4.65663e-010 0 -3.6325e-017
Spine  5.09286 -0.262217 -2.13305
Spine1  -2.18308 -1.07073 4.41502
HEad  11.4656 10.1361 -3.13201
LeftShoulder1  0.544643 -1.13008 -3.70852
LeftArm  -21.667 15.424 -6.21708
LeftForeArm  28.8727 -14.3204 -1.27835
LeftHand  -0.244104 0.0205437 5.32207
RightShoulder  -0.030467 -3.79404 2.3956
RightArm  -24.1087 -3.60134 -0.324506
RightForeArm  -9.30881 13.6271 4.40362
RightHand  -2.63746 8.27119 -22.4652
LeftUpLeg  0.652747 4.7519 1.82515
LeftLeg  4.81074 11.8924 -3.2663
LeftFoot  -7.27484 0.0787519 -0.98923
LeftToes  -5.82109e-011 -4.83791e-012 -1.00937e-011
473
root  -83.7514 41.5098 -0.270697 5.36475 84.9002 2.73816
RightUpLeg  -3.00785 -13.482 -4.67843
RightLeg  13.494 -1.55021 1.10572
RightFoot  -7.96239 -0.166585 3.80356
RightToes  -4.65663e-010 0 -3.6325e-017
Spine  5.12533 -0.0940592 -1.61985
Spine1  -1.87988 -0.781311 3.65725
HEad  12.163 8.22731 -3.00608
LeftShoulder1  0.432507 -0.826974 -1.69829
LeftArm  -21.2842 14.1498 -5.57412
LeftForeArm  28.4977 -13.3457 -1.22898
LeftHand  -0.244104 0.0205437 5.32207
RightShoulder  -0.0859894 -4.45644 0.676539
RightArm  -24.4866 -3.13043 -1.75012
RightForeArm  -8.51612 12.9233 4.22239
RightHand  -2.6987 8.49394 -22.6061
LeftUpLeg  0.278839 4.88044 1.97662
LeftLeg  5.85475 11.1246 -3.03643
LeftFoot  -7.25215 0.0649135 -0.596786
LeftToes  -5.82109e-011 -4.83791e-012 -1.00937e-011
474
root  -83.8834 41.5259 -0.298577 6.0607 84.9204 3.53494
RightUpLeg  -2.09791 -11.2021 -4.90094
RightLeg  11.6505 -2.12619 1.6661
RightFoot  -8.02188 -0.125106 2.4451
RightToes  -4.65663e-010 0 -3.6325e-017
Spine  4.78614 0.259337 -1.39738
Spine1  -1.69343 -0.313261 3.11981
HEad  13.4294 4.98184 -2.71369
LeftShoulder1  0.311014 -0.205783 0.134584
LeftArm  -21.2466 13.068 -5.28557
LeftForeArm  28.585 -12.5265 -1.14231
LeftHand  -0.244104 0.0205437 5.32207
RightShoulder  -0.112288 -4.9639 -0.84537
RightArm  -25.514 -2.46952 -2.6546
RightForeArm  -9.77945 12.097 4.04669
RightHand  -3.00129 9.38199 -23.5914
LeftUpLeg  0.261324 5.00858 1.98483
LeftLeg  5.72873 10.9222 -3.28635
LeftFoot  -6.9747 0.0651267 -0.605199
LeftToes  -5.82109e-011 -4.83791e-012 -1.00937e-011
475
root  -83.9791 41.5669 -0.328357 9.11312 84.8605 6.37079
RightUpLeg  -1.54945 -9.34403 -5.0422
RightLeg  9.65282 -4.8065 2.08866
RightFoot  -7.73619 -0.0714813 0.619367
RightToes  -4.65663e-010 0 -3.6325e-017
Spine  4.09819 0.456737 -1.19922
Spine1  -1.44256 0.0410093 2.47599
HEad  13.8082 6.1268 -2.20719
LeftShoulder1  0.195523 0.671241 1.81791
LeftArm  -21.8287 12.2518 -5.3995
LeftForeArm  28.4023 -11.9407 -0.948009
LeftHand  -0.244104 0.0205437 5.32207
RightShoulder  -0.1241 -5.35162 -1.94989
RightArm  -26.5527 -1.70449 -3.02147
RightForeArm  -12.2655 11.4948 3.96754
RightHand  -3.28458 9.9635 -24.795
LeftUpLeg  0.371811 4.78248 1.67913
LeftLeg  4.63166 11.2556 -3.64989
LeftFoot  -6.4393 0.0498556 -0.243234
LeftToes  -5.82109e-011 -4.83791e-012 -1.00937e-011
476
root  -84.0568 41.6227 -0.367121 12.1976 84.9577 9.14471
RightUpLeg  -1.12075 -8.30234 -5.23408
RightLeg  7.7821 -6.73858 2.55721
RightFoot  -7.12262 -0.0288247 -0.536996
RightToes  -4.65663e-010 0 -3.6325e-017
Spine  3.37445 0.472817 -0.66039
Spine1  -1.11162 0.276188 1.45139
HEad  14.4199 6.72938 -1.63017
LeftShoulder1  0.121861 1.39361 3.09016
LeftArm  -22.5572 11.8735 -5.67108
LeftForeArm  27.6525 -11.7697 -0.785971
LeftHand  -0.244104 0.0205437 5.32207
RightShoulder  -0.13894 -5.71047 -2.42834
RightArm  -27.2034 -0.905513 -3.19868
RightForeArm  -13.7985 11.1009 3.93481
RightHand  -3.40304 10.0702 -25.4772
LeftUpLeg  0.413911 4.27489 1.22364
LeftLeg  3.36798 11.7548 -3.77489
LeftFoot  -5.69172 0.0190982 0.320571
LeftToes  -5.82109e-011 -4.83791e-012 -1.00937e-011
477
root  -84.1358 41.6703 -0.418362 13.0456 85.0578 9.67206
RightUpLeg  -0.851033 -8.38988 -5.47799
RightLeg  6.35329 -6.72594 3.12105
RightFoot  -6.42235 -0.0172584 -0.619674
RightToes  -4.65663e-010 0 -3.6325e-017
Spine  2.82943 0.495885 0.154603
Spine1  -0.827451 0.505483 0.3882
HEad  14.9798 6.95812 -1.47109
LeftShoulder1  0.0916275 1.7968 3.58477
LeftArm  -22.7947 11.8251 -5.76717
LeftForeArm  27.0171 -11.8953 -0.786374
LeftHand  -0.244104 0.0205437 5.32207
RightShoulder  -0.150471 -5.92895 -2.5289
RightArm  -27.3636 -0.251598 -3.37503
RightForeArm  -13.1258 10.6569 3.84607
RightHand  -3.39506 10.1605 -25.2791
LeftUpLeg  0.222743 3.89011 0.957564
LeftLeg  2.64801 12.0538 -3.7125
LeftFoot  -5.10053 0.00697546 0.529495
LeftToes  -5.82109e-011 -4.83791e-012 -1.00937e-011
478
root  -84.2277 41.6936 -0.476424 12.2978 85.0233 8.59903
RightUpLeg  -0.975711 -8.75633 -5.68922
RightLeg  5.65682 -6.14341 3.64425
RightFoot  -5.921 -0.0243574 -0.33283
RightToes  -4.65663e-010 0 -3.6325e-017
Spine  2.56591 0.619243 0.799011
Spine1  -0.707688 0.745668 -0.266405
HEad  15.31 6.84829 -1.74275
LeftShoulder1  0.077995 2.08744 3.46099
LeftArm  -22.4436 11.7512 -5.77143
LeftForeArm  27.1308 -11.8313 -0.875769
LeftHand  -0.244104 0.0205437 5.32207
RightShoulder  -0.145145 -5.8573 -2.57176
RightArm  -27.112 0.133656 -3.5426
RightForeArm  -11.328 9.98275 3.7089
RightHand  -3.28396 10.198 -24.4291
LeftUpLeg  -0.193685 3.76804 0.895777
LeftLeg  2.47429 12.2112 -3.68671
LeftFoot  -4.91888 0.00378127 0.569653
LeftToes  -5.82109e-011 -4.83791e-012 -1.00937e-011
479
root  -84.3302 41.699 -0.532519 12.1709 84.9465 8.21411
RightUpLeg  -1.43124 -8.94075 -5.80047
RightLeg  5.62985 -5.93909 3.8823
RightFoot  -5.67209 -0.0210961 -0.344729
RightToes  -4.65663e-010 0 -3.6325e-017
Spine  2.52411 0.746791 0.978106
Spine1  -0.615061 0.896753 -0.429059
HEad  15.2544 6.80052 -2.03308
LeftShoulder1  0.0711961 2.29303 3.08365
LeftArm  -21.7485 11.6195 -5.7714
LeftForeArm  27.4039 -11.3006 -0.965479
LeftHand  -0.244104 0.0205437 5.32207
RightShoulder  -0.122526 -5.48357 -2.53732
RightArm  -26.6881 0.38845 -3.71271
RightForeArm  -10.6146 9.06987 3.61119
RightHand  -3.08276 9.72666 -23.683
LeftUpLeg  -0.635178 3.75987 0.827483
LeftLeg  2.45627 12.3455 -3.75312
LeftFoot  -4.9136 -0.0147675 0.830191
LeftToes  -5.82109e-011 -4.83791e-012 -1.00937e-011
480
root  -84.4315 41.7044 -0.580267 12.997 85.0355 8.92651
RightUpLeg  -1.80946 -8.98522 -5.85088
RightLeg  5.77526 -6.08436 3.88318
RightFoot  -5.50264 -0.00729111 -0.57461
RightToes  -4.65663e-010 0 -3.6325e-017
Spine  2.67852 0.783889 0.778153
Spine1  -0.499773 0.904149 -0.285656
HEad  14.9123 6.93502 -2.0698
LeftShoulder1  0.0838165 2.15287 2.71096
LeftArm  -20.8374 11.7213 -5.66856
LeftForeArm  27.1098 -10.5023 -1.08946
LeftHand  -0.244104 0.0205437 5.32207
RightShoulder  -0.106394 -5.14901 -2.22445
RightArm  -26.3312 0.792412 -3.83038
RightForeArm  -11.4275 8.0913 3.5864
RightHand  -2.90015 8.91652 -23.5436
LeftUpLeg  -0.905352 3.7501 0.722084
LeftLeg  2.3524 12.3158 -3.84772
LeftFoot  -4.76019 -0.036205 1.12666
LeftToes  -5.82109e-011 -4.83791e-012 -1.00937e-011
481
root  -84.5186 41.7172 -0.616974 13.8742 85.3924 9.815
RightUpLeg  -1.83393 -8.96056 -5.85491
RightLeg  5.6386 -6.48158 3.82972
RightFoot  -5.28141 -0.000158433 -0.675374
RightToes  -4.65663e-010 0 -3.6325e-017
Spine  3.05871 0.734311 0.37337
Spine1  -0.540406 0.786126 0.0824285
HEad  14.621 6.72703 -1.92759
LeftShoulder1  0.122036 1.62856 2.31704
LeftArm  -19.6839 12.0234 -5.24777
LeftForeArm  26.8598 -9.64256 -1.27296
LeftHand  -0.244104 0.0205437 5.32207
RightShoulder  -0.114874 -5.17179 -1.75503
RightArm  -26.0739 1.343 -3.69453
RightForeArm  -11.6408 7.25385 3.55758
RightHand  -2.81523 8.52771 -23.4905
LeftUpLeg  -0.977481 3.74131 0.685838
LeftLeg  2.14758 11.9921 -3.93449
LeftFoot  -4.44847 -0.0450247 1.19356
LeftToes  -5.82109e-011 -4.83791e-012 -1.00937e-011
482
root  -84.5744 41.7318 -0.6494 14.6317 85.8878 10.6313
RightUpLeg  -1.61475 -8.82452 -5.78122
RightLeg  5.24538 -7.11733 3.69986
RightFoot  -5.03832 -0.00442173 -0.542955
RightToes  -4.65663e-010 0 -3.6325e-017
Spine  3.4389 0.661944 -0.123453
Spine1  -0.596378 0.613341 0.633214
HEad  14.5041 5.95608 -1.75425
LeftShoulder1  0.159896 1.16592 1.90303
LeftArm  -18.4843 12.0667 -4.62897
LeftForeArm  27.5604 -8.68616 -1.45591
LeftHand  -0.244104 0.0205437 5.32207
RightShoulder  -0.137789 -5.44469 -1.50201
RightArm  -25.8304 1.75136 -3.22893
RightForeArm  -9.59635 6.57887 3.41958
RightHand  -2.75128 8.68921 -22.7278
LeftUpLeg  -0.952902 3.6928 0.681531
LeftLeg  1.92313 11.5849 -3.97018
LeftFoot  -4.12327 -0.047506 1.14735
LeftToes  -5.82109e-011 -4.83791e-012 -1.00937e-011
